<?xml version="1.0" encoding="iso-8859-1"?>
<!-- Uploaded to: SVG Repo, www.svgrepo.com, Generator: SVG Repo Mixer Tools -->
<svg height="800px" width="800px" version="1.1" id="Layer_1" xmlns="http://www.w3.org/2000/svg" xmlns:xlink="http://www.w3.org/1999/xlink" 
	 viewBox="0 0 512 512" xml:space="preserve">
<path style="fill:#EAFFFF;" d="M445.217,489.739H66.783c-24.588,0-44.522-19.934-44.522-44.522V66.783
	c0-24.588,19.933-44.522,44.522-44.522h378.435c24.588,0,44.522,19.933,44.522,44.522v378.435
	C489.739,469.806,469.806,489.739,445.217,489.739z"/>
<path style="fill:#FFED8F;" d="M489.739,256H22.261C22.261,126.909,126.909,22.261,256,22.261S489.739,126.909,489.739,256z"/>
<path style="fill:#FFCD69;" d="M400.696,256H111.304c0-79.913,64.782-144.696,144.696-144.696S400.696,176.087,400.696,256z"/>
<path style="fill:#A9D5BB;" d="M489.739,512H22.261C9.966,512,0,502.034,0,489.739V256h512v233.739
	C512,502.034,502.034,512,489.739,512z"/>
<path style="fill:#C5EAD4;" d="M311.652,512H200.348l-89.043-256h289.391L311.652,512z"/>
<path style="fill:#EAFFFF;" d="M512,256c0,4.61-3.738,8.348-8.348,8.348H8.348C3.738,264.348,0,260.61,0,256
	s3.738-8.348,8.348-8.348h495.304C508.262,247.652,512,251.39,512,256z M400.696,283.826H111.304c-4.61,0-8.348,3.738-8.348,8.348
	c0,4.61,3.738,8.348,8.348,8.348h289.391c4.61,0,8.348-3.738,8.348-8.348C409.043,287.564,405.306,283.826,400.696,283.826z
	 M345.043,356.174c4.61,0,8.348-3.738,8.348-8.348s-3.738-8.348-8.348-8.348H166.957c-4.61,0-8.348,3.738-8.348,8.348
	s3.738,8.348,8.348,8.348H345.043z M300.522,406.261h-89.043c-4.61,0-8.348,3.738-8.348,8.348s3.738,8.348,8.348,8.348h89.043
	c4.61,0,8.348-3.738,8.348-8.348S305.132,406.261,300.522,406.261z M267.13,473.043H244.87c-4.61,0-8.348,3.738-8.348,8.348
	c0,4.61,3.738,8.348,8.348,8.348h22.261c4.61,0,8.348-3.738,8.348-8.348C275.478,476.781,271.741,473.043,267.13,473.043z
	 M356.174,406.261h-22.261c-4.61,0-8.348,3.738-8.348,8.348s3.738,8.348,8.348,8.348h22.261c4.61,0,8.348-3.738,8.348-8.348
	S360.784,406.261,356.174,406.261z M178.087,406.261h-22.261c-4.61,0-8.348,3.738-8.348,8.348s3.738,8.348,8.348,8.348h22.261
	c4.61,0,8.348-3.738,8.348-8.348S182.697,406.261,178.087,406.261z M133.565,339.478h-22.261c-4.61,0-8.348,3.738-8.348,8.348
	s3.738,8.348,8.348,8.348h22.261c4.61,0,8.348-3.738,8.348-8.348S138.175,339.478,133.565,339.478z M77.913,283.826H33.391
	c-4.61,0-8.348,3.738-8.348,8.348c0,4.61,3.738,8.348,8.348,8.348h44.522c4.61,0,8.348-3.738,8.348-8.348
	C86.261,287.564,82.523,283.826,77.913,283.826z M478.609,283.826h-44.522c-4.61,0-8.348,3.738-8.348,8.348
	c0,4.61,3.738,8.348,8.348,8.348h44.522c4.61,0,8.348-3.738,8.348-8.348C486.957,287.564,483.219,283.826,478.609,283.826z
	 M400.696,339.478h-22.261c-4.61,0-8.348,3.738-8.348,8.348s3.738,8.348,8.348,8.348h22.261c4.61,0,8.348-3.738,8.348-8.348
	S405.306,339.478,400.696,339.478z"/>
<path style="fill:#A9D5BB;" d="M289.391,22.261c0,12.295-9.966,22.261-22.261,22.261h-47.524c1.898,3.277,3.002,7.071,3.002,11.13
	c0,12.295-9.966,22.261-22.261,22.261H22.261C9.966,77.913,0,67.947,0,55.652s9.966-22.261,22.261-22.261h103.176
	c-1.898-3.277-3.002-7.071-3.002-11.13C122.435,9.966,132.401,0,144.696,0H267.13C279.425,0,289.391,9.966,289.391,22.261z
	 M489.739,111.304h-66.783c-12.295,0-22.261,9.966-22.261,22.261l0,0c0,12.295,9.966,22.261,22.261,22.261h66.783
	c12.295,0,22.261-9.966,22.261-22.261l0,0C512,121.271,502.034,111.304,489.739,111.304z"/>
<path style="fill:#C5EAD4;" d="M289.391,22.261L289.391,22.261c0,12.295-9.966,22.261-22.261,22.261H144.696
	c-12.295,0-22.261-9.966-22.261-22.261l0,0C122.435,9.966,132.401,0,144.696,0H267.13C279.425,0,289.391,9.966,289.391,22.261z"/>
</svg>